<svg width="134" height="116" viewBox="0 0 134 116" fill="none" xmlns="http://www.w3.org/2000/svg">
<g clip-path="url(#clip0_624_11517)">
<mask id="mask0_624_11517" style="mask-type:alpha" maskUnits="userSpaceOnUse" x="17" y="1" width="100" height="116">
<path d="M101.959 54.3128C104.325 47.2943 105.4 41.9011 105.979 34.6902C106.925 22.2161 99.319 10.1538 88.0496 6.32621C83.2792 4.74426 82.3064 4.50588 83.976 7.68061C84.6996 9.04179 85.3118 10.4605 85.8065 11.9226C86.6266 14.3172 86.6909 14.859 86.8168 21.1759C86.8758 40.4681 84.3057 69.0163 76.2121 88.0836C76.1478 88.211 76.6516 88.4331 77.3162 88.6254C78.7688 89.0398 79.3986 88.6579 83.4802 84.8331C90.8797 77.8606 98.0434 66.0556 101.959 54.3128Z" fill="url(#paint0_linear_624_11517)"/>
<path d="M116.133 38.7128C114.686 33.2356 110.323 25.5019 109.219 26.5881C111.631 46.4004 100.857 72.787 86.8704 86.7942C83.1184 90.6245 83.3864 90.6245 89.2047 86.8267C94.4762 83.3811 97.2447 81.0515 101.865 76.3924C106.568 71.6086 109.945 67.2366 112.66 62.4176C115.943 56.6749 116.948 52.9097 116.948 46.5277C116.953 42.5728 116.83 41.4568 116.133 38.7128Z" fill="url(#paint1_linear_624_11517)"/>
<path d="M74.963 91.8056C71.1359 90.7898 62.7556 90.8006 58.9312 91.8056C56.345 92.4421 53.4077 93.5609 53.4077 93.9103C53.615 94.461 53.8848 94.9855 54.2117 95.4733C55.0934 96.974 56.2619 101.248 56.2619 102.909C56.2619 103.738 56.42 104.022 56.9882 104.247C57.6207 104.502 57.8404 105.014 58.4729 107.95C59.167 111.201 59.6709 112.13 60.365 111.428C60.5231 111.268 60.2712 109.578 59.7674 107.471C59.167 105.046 58.9768 103.678 59.1992 103.407C59.5128 102.96 61.4075 102.354 62.45 102.354C63.0798 102.354 63.1442 102.579 63.3344 104.97C63.8061 111.003 63.8704 111.29 64.5646 111.29C65.1649 111.29 65.1649 111.16 64.9746 107.685C64.8486 105.737 64.6905 103.662 64.5646 103.08C64.4064 102.123 64.4708 102.058 65.5749 101.836C66.4955 101.728 67.4254 101.728 68.346 101.836C69.4502 102.058 69.5145 102.123 69.3564 103.08C69.2304 103.654 69.0723 105.729 68.9464 107.685C68.7561 111.16 68.7561 111.29 69.3564 111.29C70.0505 111.29 70.1148 111.003 70.5865 104.97C70.7768 102.579 70.8545 102.354 71.4709 102.354C72.5134 102.354 74.4189 102.96 74.7218 103.407C74.9442 103.662 74.7539 105.033 74.1536 107.471C73.6498 109.578 73.3978 111.263 73.556 111.428C74.2501 112.13 74.7539 111.203 75.448 107.95C76.0805 105.014 76.3003 104.504 76.9328 104.247C77.5009 104.025 77.659 103.738 77.659 102.909C77.659 101.248 78.8275 96.974 79.7092 95.4733C80.0315 94.9848 80.2968 94.4604 80.4998 93.9103C80.4864 93.5609 77.5492 92.4421 74.963 91.8056Z" fill="url(#paint2_linear_624_11517)"/>
<path d="M67.8342 107.311C67.2607 107.311 66.7032 107.311 66.1297 107.311C60.8903 107.335 59.6575 107.406 59.2796 107.69C58.8374 108.026 58.8374 110.114 59.2475 112.639C59.612 114.877 63.297 115.995 66.982 116.001C70.667 116.006 74.3519 114.877 74.7164 112.639C75.1265 110.114 75.1265 108.034 74.6843 107.69C74.3064 107.406 73.0736 107.335 67.8342 107.311Z" fill="url(#paint3_linear_624_11517)"/>
<path d="M61.2361 86.0927C61.3972 86.4276 61.6482 86.7101 61.9605 86.9079C62.2727 87.1057 62.6337 87.2108 63.0022 87.2114H70.9618C71.3303 87.2108 71.6912 87.1057 72.0035 86.9079C72.3158 86.7101 72.5668 86.4276 72.7279 86.0927C78.1898 74.8294 83.0191 45.9534 83.1451 23.6193C83.1772 18.3561 83.0808 16.5764 82.6386 14.7804C78.0826 -3.57993 55.8841 -3.60701 51.3254 14.7804C50.8832 16.5682 50.7894 18.3561 50.8189 23.6193C50.9449 45.967 55.7742 74.8294 61.2361 86.0927Z" fill="url(#paint4_linear_624_11517)"/>
<path d="M56.6587 88.6146C57.3233 88.4222 57.8272 88.2001 57.7655 88.0728C49.6692 68.9919 47.1018 40.4627 47.15 21.1624C47.276 14.8454 47.3403 14.3037 48.1604 11.9091C48.6551 10.447 49.2673 9.02825 49.9908 7.66707C51.6658 4.50318 50.6742 4.74968 45.9172 6.31266C34.6478 10.1402 27.042 22.2026 27.988 34.6767C28.9689 52.5034 38.5311 73.5021 50.5 84.8033C54.5763 88.6471 55.2061 89.0371 56.6587 88.6146Z" fill="url(#paint5_linear_624_11517)"/>
<path d="M26.1334 47.0722C24.638 40.3083 24.0189 32.2333 24.638 28.2784C24.7666 27.417 24.7961 26.6829 24.7345 26.5881C23.6303 25.5046 19.2726 33.2247 17.8201 38.7128C17.126 41.4568 17 42.5728 17 46.5277C17 52.9097 18.0104 56.6749 21.288 62.4176C24.0028 67.2366 27.3796 71.6086 32.083 76.3924C36.6926 81.0516 39.4718 83.3811 44.7434 86.8267C50.5509 90.6191 50.835 90.6191 47.0776 86.7942C37.3412 76.8095 29.3548 61.6537 26.1334 47.0722Z" fill="url(#paint6_linear_624_11517)"/>
</mask>
<g mask="url(#mask0_624_11517)">
<rect x="-29" y="-27" width="192" height="170" fill="url(#paint7_linear_624_11517)"/>
<path d="M108.608 75.1094C111.968 72.5079 116.782 73.1149 119.362 76.4651C121.861 79.7113 121.347 84.3426 118.257 86.9947L117.95 87.2446C105.926 96.5563 94.1822 100.838 83.1882 101.636C72.252 102.429 62.6015 99.7376 54.7394 95.9552C46.9075 92.1873 40.7063 87.2725 36.4935 83.359C34.3739 81.39 32.721 79.6395 31.5794 78.3583C31.0076 77.7166 30.561 77.1891 30.2463 76.8075C30.0891 76.617 29.9641 76.4623 29.8727 76.3475C29.8271 76.2902 29.7889 76.243 29.7599 76.206L29.7032 76.1325C29.7032 76.1325 29.7045 76.1311 29.7393 76.1033C29.7374 76.1014 29.7354 76.0996 29.7335 76.0977L29.6987 76.1253C29.6168 76.019 29.5376 75.9117 29.4622 75.8026C29.3637 75.6892 29.2666 75.5733 29.1737 75.4528L29.1739 75.4542L29.1817 75.4652C29.1779 75.4603 29.1664 75.4453 29.1474 75.4214C29.1089 75.373 29.0399 75.2859 28.9404 75.1653C28.7407 74.9231 28.4198 74.5439 27.9858 74.0568C27.1156 73.0802 25.797 71.6801 24.0767 70.082C20.6086 66.8603 15.654 62.9672 9.59167 60.0506C3.55965 57.1487 -3.4248 55.2794 -11.1284 55.8383C-18.7746 56.393 -27.6779 59.3779 -37.5726 67.0408C-40.9326 69.6424 -45.7472 69.035 -48.327 65.6846C-50.8259 62.4384 -50.3109 57.8075 -47.2216 55.1556L-46.9145 54.9057C-34.8907 45.5939 -23.1464 41.3119 -12.1525 40.5144C-1.21614 39.7211 8.43421 42.4126 16.2964 46.195C24.1281 49.9629 30.3287 54.8771 34.5415 58.7906C36.6613 60.7598 38.3147 62.5106 39.4564 63.7919C40.0281 64.4336 40.4747 64.9611 40.7895 65.3427C40.9464 65.533 41.0709 65.6874 41.1623 65.8022C41.208 65.8596 41.2468 65.9071 41.2758 65.9442L41.3326 66.0177C41.3326 66.0177 41.3305 66.0182 41.2963 66.0455C41.2982 66.0475 41.3002 66.0492 41.3021 66.0512L41.3371 66.0249C41.4189 66.1312 41.4982 66.2385 41.5736 66.3477C41.6721 66.461 41.7692 66.577 41.8621 66.6975L41.8619 66.6961L41.8883 66.7288C41.9269 66.7773 41.996 66.8644 42.0954 66.985C42.295 67.227 42.616 67.6052 43.0498 68.092C43.92 69.0686 45.2385 70.4699 46.959 72.0682C50.4271 75.2899 55.3812 79.1825 61.4433 82.099C67.4754 85.001 74.4604 86.8708 82.1642 86.312C89.8104 85.7572 98.7137 82.7723 108.608 75.1094Z" fill="#FF8F27"/>
<path d="M132.608 49.1094C135.968 46.5079 140.782 47.1149 143.362 50.4651C145.861 53.7113 145.347 58.3426 142.257 60.9947L141.95 61.2446C129.926 70.5563 118.182 74.8383 107.188 75.6358C96.252 76.4291 86.6015 73.7376 78.7394 69.9552C70.9075 66.1873 64.7063 61.2725 60.4935 57.359C58.3739 55.39 56.721 53.6395 55.5794 52.3583C55.0076 51.7166 54.561 51.1891 54.2463 50.8075C54.0891 50.617 53.9641 50.4623 53.8727 50.3475C53.8271 50.2902 53.7889 50.243 53.7599 50.206L53.7032 50.1325C53.7032 50.1325 53.7045 50.1311 53.7393 50.1033C53.7374 50.1014 53.7354 50.0996 53.7335 50.0977L53.6987 50.1253C53.6168 50.019 53.5376 49.9117 53.4622 49.8026C53.3637 49.6892 53.2666 49.5733 53.1737 49.4528L53.1739 49.4542L53.1817 49.4652C53.1779 49.4603 53.1664 49.4453 53.1474 49.4214C53.1089 49.373 53.0399 49.2859 52.9404 49.1653C52.7407 48.9231 52.4198 48.5439 51.9858 48.0568C51.1156 47.0802 49.797 45.6801 48.0767 44.082C44.6086 40.8603 39.654 36.9672 33.5917 34.0506C27.5596 31.1487 20.5752 29.2794 12.8716 29.8383C5.22536 30.393 -3.67789 33.3779 -13.5726 41.0408C-16.9326 43.6424 -21.7472 43.035 -24.327 39.6846C-26.8259 36.4384 -26.3109 31.8075 -23.2216 29.1556L-22.9145 28.9057C-10.8907 19.5939 0.853574 15.3119 11.8475 14.5144C22.7839 13.7211 32.4342 16.4126 40.2964 20.195C48.1281 23.9629 54.3287 28.8771 58.5415 32.7906C60.6613 34.7598 62.3147 36.5106 63.4564 37.7919C64.0281 38.4336 64.4747 38.9611 64.7895 39.3427C64.9464 39.533 65.0709 39.6874 65.1623 39.8022C65.208 39.8596 65.2468 39.9071 65.2758 39.9442L65.3326 40.0177C65.3326 40.0177 65.3305 40.0182 65.2963 40.0455C65.2982 40.0475 65.3002 40.0492 65.3021 40.0512L65.3371 40.0249C65.4189 40.1312 65.4982 40.2385 65.5736 40.3477C65.6721 40.461 65.7692 40.577 65.8621 40.6975L65.8619 40.6961L65.8883 40.7288C65.9269 40.7773 65.996 40.8644 66.0954 40.985C66.295 41.227 66.616 41.6052 67.0498 42.092C67.92 43.0686 69.2385 44.4699 70.959 46.0682C74.4271 49.2899 79.3812 53.1825 85.4433 56.099C91.4754 59.001 98.4604 60.8708 106.164 60.312C113.81 59.7572 122.714 56.7723 132.608 49.1094Z" fill="#FF8F27"/>
<path d="M161.608 15.1094C164.968 12.5079 169.782 13.1149 172.362 16.4651C174.861 19.7113 174.347 24.3426 171.257 26.9947L170.95 27.2446C158.926 36.5563 147.182 40.8383 136.188 41.6358C125.252 42.4291 115.602 39.7376 107.739 35.9552C99.9075 32.1873 93.7063 27.2725 89.4935 23.359C87.3739 21.39 85.721 19.6395 84.5794 18.3583C84.0076 17.7166 83.561 17.1891 83.2463 16.8075C83.0891 16.617 82.9641 16.4623 82.8727 16.3475C82.8271 16.2902 82.7889 16.243 82.7599 16.206L82.7032 16.1325C82.7032 16.1325 82.7045 16.1311 82.7393 16.1033C82.7374 16.1014 82.7354 16.0996 82.7335 16.0977L82.6987 16.1253C82.6168 16.019 82.5376 15.9117 82.4622 15.8026C82.3637 15.6892 82.2666 15.5733 82.1737 15.4528L82.1739 15.4542L82.1817 15.4652C82.1779 15.4603 82.1664 15.4453 82.1474 15.4214C82.1089 15.373 82.0399 15.2859 81.9404 15.1653C81.7407 14.9231 81.4198 14.5439 80.9858 14.0568C80.1156 13.0802 78.797 11.6801 77.0767 10.082C73.6086 6.86029 68.654 2.9672 62.5917 0.0506035C56.5596 -2.85131 49.5752 -4.72055 41.8716 -4.16174C34.2254 -3.60702 25.3221 -0.622135 15.4274 7.04082C12.0674 9.64242 7.25276 9.03499 4.67296 5.68455C2.17405 2.43838 2.68912 -2.19247 5.77843 -4.84444L6.08551 -5.09433C18.1093 -14.4061 29.8536 -18.6881 40.8475 -19.4856C51.7839 -20.2789 61.4342 -17.5874 69.2964 -13.805C77.1281 -10.0371 83.3287 -5.12286 87.5415 -1.20935C89.6613 0.759804 91.3147 2.51064 92.4564 3.79195C93.0281 4.43359 93.4747 4.96113 93.7895 5.34271C93.9464 5.53302 94.0709 5.68743 94.1623 5.80217C94.208 5.85957 94.2468 5.90713 94.2758 5.9442L94.3326 6.01772C94.3326 6.01772 94.3305 6.01817 94.2963 6.04554C94.2982 6.04746 94.3002 6.04924 94.3021 6.05117L94.3371 6.02495C94.4189 6.13123 94.4982 6.23853 94.5736 6.34766C94.6721 6.46097 94.7692 6.57703 94.8621 6.69746L94.8619 6.69606L94.8883 6.72881C94.9269 6.77728 94.996 6.86444 95.0954 6.98495C95.295 7.22704 95.616 7.60521 96.0498 8.09202C96.92 9.06861 98.2385 10.4699 99.959 12.0682C103.427 15.2899 108.381 19.1825 114.443 22.099C120.475 25.001 127.46 26.8708 135.164 26.312C142.81 25.7572 151.714 22.7723 161.608 15.1094Z" fill="#FF8F27"/>
</g>
<path d="M105.423 76.8244C114.948 76.8009 124.473 76.8009 134 76.8244C133.826 76.3395 132.036 71.6235 127.555 70.6591C126.483 70.4358 125.378 70.4358 124.306 70.6591C123.79 69.4547 123.037 68.3686 122.094 67.4663C121.15 66.5641 120.036 65.8644 118.818 65.4094C116.648 64.6469 114.287 64.6469 112.118 65.4094C107.763 66.8939 106.128 70.7594 105.876 71.3688C105.512 71.2009 102.247 69.7436 99.2377 71.3688C98.2474 71.9063 97.4153 72.6987 96.8257 73.6659C96.3835 73.4682 93.0603 72.0406 89.713 73.6659C88.286 74.362 87.106 75.4857 86.3335 76.884C92.7012 76.8533 99.0644 76.8334 105.423 76.8244Z" fill="white"/>
<path d="M19.0709 52.9868C28.5956 52.9634 38.1212 52.9634 47.6477 52.9868C47.4735 52.502 45.6833 47.7859 41.2157 46.8216C40.1443 46.5982 39.039 46.5982 37.9676 46.8216C37.451 45.6172 36.6983 44.5311 35.755 43.6288C34.8116 42.7265 33.6972 42.0268 32.4789 41.5719C30.3093 40.8094 27.9485 40.8094 25.7789 41.5719C21.4239 43.0563 19.7891 46.9218 19.5372 47.5313C19.1727 47.3633 15.9112 45.906 12.8988 47.5313C11.9086 48.0687 11.0765 48.8612 10.4868 49.8284C10.0446 49.6306 6.73484 48.2031 3.37412 49.8284C1.94758 50.5282 0.76932 51.6558 0 53.0573C6.35517 53.0193 12.7121 52.9959 19.0709 52.9868Z" fill="white"/>
<path d="M75.2776 91.749C71.3223 90.7135 62.6611 90.7245 58.7086 91.749C56.0357 92.3979 53 93.5383 53 93.8945C53.2142 94.4559 53.4931 94.9905 53.8309 95.4878C54.7422 97.0176 55.9498 101.375 55.9498 103.068C55.9498 103.913 56.1133 104.203 56.7005 104.432C57.3541 104.691 57.5813 105.213 58.2349 108.206C58.9523 111.52 59.473 112.467 60.1904 111.752C60.3538 111.589 60.0935 109.866 59.5728 107.718C58.9523 105.246 58.7557 103.852 58.9856 103.576C59.3096 103.12 61.2679 102.502 62.3453 102.502C62.9962 102.502 63.0627 102.731 63.2594 105.169C63.7469 111.318 63.8133 111.611 64.5307 111.611C65.1511 111.611 65.1511 111.479 64.9545 107.936C64.8243 105.95 64.6609 103.835 64.5307 103.242C64.3673 102.267 64.4338 102.201 65.5749 101.974C66.5264 101.864 67.4875 101.864 68.4389 101.974C69.5801 102.201 69.6465 102.267 69.4831 103.242C69.3529 103.827 69.1895 105.942 69.0593 107.936C68.8627 111.479 68.8627 111.611 69.4831 111.611C70.2005 111.611 70.267 111.318 70.7545 105.169C70.9511 102.731 71.0315 102.502 71.6685 102.502C72.746 102.502 74.7153 103.12 75.0283 103.576C75.2582 103.835 75.0615 105.233 74.4411 107.718C73.9204 109.866 73.66 111.584 73.8234 111.752C74.5408 112.467 75.0615 111.523 75.7789 108.206C76.4326 105.213 76.6597 104.694 77.3134 104.432C77.9006 104.205 78.064 103.913 78.064 103.068C78.064 101.375 79.2716 97.0176 80.1829 95.4878C80.516 94.9899 80.7902 94.4552 81 93.8945C80.9862 93.5383 77.9504 92.3979 75.2776 91.749Z" fill="#035ED0"/>
<path d="M67.8482 106.976C67.2774 106.976 66.7226 106.976 66.1518 106.976C60.9372 107.002 59.7103 107.075 59.3342 107.369C58.8941 107.717 58.8941 109.88 59.3022 112.495C59.6649 114.812 63.3325 115.971 67 115.976C70.6675 115.982 74.3351 114.812 74.6978 112.495C75.1059 109.88 75.1059 107.726 74.6658 107.369C74.2897 107.075 73.0628 107.002 67.8482 106.976Z" fill="#035ED0"/>
</g>
<defs>
<linearGradient id="paint0_linear_624_11517" x1="81.8971" y1="11.5386" x2="118.574" y2="49.8524" gradientUnits="userSpaceOnUse">
<stop stop-color="#00A7FF"/>
<stop offset="1" stop-color="#035ED0"/>
</linearGradient>
<linearGradient id="paint1_linear_624_11517" x1="90.5899" y1="31.282" x2="116.167" y2="69.8307" gradientUnits="userSpaceOnUse">
<stop stop-color="#00A7FF"/>
<stop offset="1" stop-color="#035ED0"/>
</linearGradient>
<linearGradient id="paint2_linear_624_11517" x1="58.5722" y1="92.6117" x2="62.981" y2="109.566" gradientUnits="userSpaceOnUse">
<stop stop-color="#00A7FF"/>
<stop offset="1" stop-color="#035ED0"/>
</linearGradient>
<linearGradient id="paint3_linear_624_11517" x1="62.0084" y1="107.971" x2="63.3732" y2="115.354" gradientUnits="userSpaceOnUse">
<stop stop-color="#00A7FF"/>
<stop offset="1" stop-color="#035ED0"/>
</linearGradient>
<linearGradient id="paint4_linear_624_11517" x1="56.9782" y1="7.54502" x2="94.6925" y2="48.9112" gradientUnits="userSpaceOnUse">
<stop stop-color="#00A7FF"/>
<stop offset="1" stop-color="#035ED0"/>
</linearGradient>
<linearGradient id="paint5_linear_624_11517" x1="33.6012" y1="11.536" x2="70.2748" y2="49.8623" gradientUnits="userSpaceOnUse">
<stop stop-color="#00A7FF"/>
<stop offset="1" stop-color="#035ED0"/>
</linearGradient>
<linearGradient id="paint6_linear_624_11517" x1="23.2078" y1="31.282" x2="48.7829" y2="69.8287" gradientUnits="userSpaceOnUse">
<stop stop-color="#00A7FF"/>
<stop offset="1" stop-color="#035ED0"/>
</linearGradient>
<linearGradient id="paint7_linear_624_11517" x1="20.9127" y1="-29" x2="59.8993" y2="116.5" gradientUnits="userSpaceOnUse">
<stop stop-color="#BBE7FF"/>
<stop offset="1" stop-color="#035ED0"/>
</linearGradient>
<clipPath id="clip0_624_11517">
<rect width="134" height="115" fill="white" transform="translate(0 0.77002)"/>
</clipPath>
</defs>
</svg>
